#!OML:ASF F:\VICON\USERDATA\INSTALL\rory3\rory3.ASF
:FULLY-SPECIFIED
:DEGREES
65
root 0.891269 17.684 -1.67031 0.712559 -5.81498 3.06886
lowerback 16.1305 1.64368 -4.06936
upperback 3.74963 1.34573 -2.21918
thorax -5.07722 0.692369 -0.316196
lowerneck -10.0651 -2.23777 -7.40197
upperneck 0.424609 -2.41107 8.54587
head 1.95441 -0.985128 3.67324
rclavicle 1.54058e-014 1.59028e-014
rhumerus -28.731 6.39814 -84.5263
rradius 36.2971
rwrist 17.999
rhand -33.2753 -1.43632
rfingers 7.12502
rthumb -6.48 -31.3172
lclavicle 1.54058e-014 1.59028e-014
lhumerus -27.5936 8.44094 77.354
lradius 29.1712
lwrist -1.98585
lhand -31.8066 30.7306
lfingers 7.12502
lthumb -5.06203 60.6502
rfemur -23.3482 11.8798 14.5639
rtibia 50.6333
rfoot -27.4444 -9.20812
rtoes -5.06918
lfemur -22.0708 5.15718 -22.3175
ltibia 48.4321
lfoot -23.7385 0.947285
ltoes -4.67802
66
root 0.896267 17.6231 -1.68969 0.838663 -5.73226 3.38189
lowerback 16.4522 1.6365 -4.38441
upperback 3.82235 1.2611 -2.29897
thorax -5.17519 0.65425 -0.212924
lowerneck -10.2625 -2.27295 -7.32968
upperneck 0.181854 -2.43957 8.47672
head 1.9138 -0.998121 3.63829
rclavicle -2.34566e-014 0
rhumerus -28.5376 6.49723 -84.3713
rradius 36.3499
rwrist 17.945
rhand -33.8243 -1.19109
rfingers 7.12502
rthumb -7.00994 -31.055
lclavicle -2.34566e-014 0
lhumerus -27.5065 8.14688 77.3425
lradius 29.2869
lwrist -2.62276
lhand -32.179 31.0108
lfingers 7.12502
lthumb -5.42153 60.9214
rfemur -24.1817 11.3922 14.1082
rtibia 51.8001
rfoot -27.9411 -8.72887
rtoes -4.84106
lfemur -22.8433 5.23193 -22.6926
ltibia 49.4142
lfoot -24.0996 0.772504
ltoes -4.63324
67
root 0.902315 17.5607 -1.70876 0.915752 -5.80365 3.53608
lowerback 16.8559 1.67324 -4.54899
upperback 3.89601 1.25283 -2.361
thorax -5.31532 0.652347 -0.193355
lowerneck -10.3789 -2.25942 -7.26955
upperneck -0.224614 -2.40122 8.13834
head 2.01014 -0.998512 3.91099
rclavicle -4.87022e-015 -3.45885e-014
rhumerus -28.3548 6.55958 -84.2461
rradius 36.3888
rwrist 18.0034
rhand -34.259 -0.859074
rfingers 7.12502
rthumb -7.42955 -30.7086
lclavicle -4.87022e-015 -3.45885e-014
lhumerus -27.4263 7.31794 77.4716
lradius 29.637
lwrist -1.70006
lhand -32.4956 30.8127
lfingers 7.12502
lthumb -5.72722 60.7153
rfemur -24.9845 11.0784 13.8535
rtibia 52.9336
rfoot -28.3157 -8.48839
rtoes -5.12494
lfemur -23.5763 5.4423 -22.892
ltibia 50.418
lfoot -24.4655 0.631353
ltoes -4.84025
68
root 0.909833 17.4982 -1.72425 0.909573 -5.99357 3.60938
lowerback 17.3119 1.75955 -4.65264
upperback 3.99019 1.31793 -2.38618
thorax -5.46297 0.685449 -0.186031
lowerneck -10.488 -2.23998 -7.26042
upperneck -0.467667 -2.35774 8.13341
head 1.94452 -0.975227 3.90776
rclavicle -1.91827e-014 -1.51076e-014
rhumerus -28.1975 6.50723 -84.0411
rradius 36.482
rwrist 18.1311
rhand -34.2531 -0.776246
rfingers 7.12502
rthumb -7.42384 -30.626
lclavicle -1.91827e-014 -1.51076e-014
lhumerus -27.2771 6.51835 77.607
lradius 29.9747
lwrist -0.472611
lhand -32.411 31.1023
lfingers 7.12502
lthumb -5.6456 61.0071
rfemur -25.7175 10.9301 13.7161
rtibia 54.0457
rfoot -28.5824 -8.47332
rtoes -5.72468
lfemur -24.2001 5.85163 -22.9996
ltibia 51.4343
lfoot -24.8049 0.480202
ltoes -5.18036
69
root 0.918337 17.4358 -1.73654 0.905966 -6.0947 3.64151
lowerback 17.7912 1.79162 -4.72257
upperback 4.06185 1.31713 -2.37155
thorax -5.64464 0.686926 -0.142383
lowerneck -10.5192 -2.22187 -7.35695
upperneck -0.723957 -2.309 8.17876
head 1.86338 -0.949748 3.94358
rclavicle 1.39149e-015 -4.37326e-015
rhumerus -28.0671 6.63996 -83.8513
rradius 36.5457
rwrist 17.9841
rhand -34.4178 -0.752833
rfingers 7.12502
rthumb -7.58286 -30.5969
lclavicle 1.39149e-015 -4.37326e-015
lhumerus -27.1999 6.16837 77.6435
lradius 30.0524
lwrist -0.196434
lhand -32.5017 30.9951
lfingers 7.12502
lthumb -5.73309 60.8975
rfemur -26.3796 10.6294 13.6313
rtibia 55.1237
rfoot -28.8933 -8.35362
rtoes -6.40757
lfemur -24.786 6.23411 -23.0595
ltibia 52.4551
lfoot -25.19 0.233412
ltoes -5.3284
70
root 0.926978 17.375 -1.75014 1.00091 -6.12848 3.75284
lowerback 18.1139 1.79416 -4.85572
upperback 4.15985 1.27523 -2.3947
thorax -5.71245 0.667416 -0.0891292
lowerneck -10.53 -2.18408 -7.31724
upperneck -1.06812 -2.24458 8.13108
head 1.74251 -0.919094 3.91886
rclavicle 1.89839e-014 1.55052e-014
rhumerus -27.8734 6.80564 -83.6829
rradius 36.6465
rwrist 17.7311
rhand -34.8616 -0.671812
rfingers 7.12502
rthumb -8.01119 -30.5
lclavicle 1.89839e-014 1.55052e-014
lhumerus -27.11 5.98728 77.6194
lradius 30.2134
lwrist -0.235764
lhand -32.5051 30.5978
lfingers 7.12502
lthumb -5.73645 60.5002
rfemur -27.156 10.2035 13.4243
rtibia 56.1992
rfoot -29.2422 -8.05342
rtoes -6.86827
lfemur -25.4718 6.49341 -23.221
ltibia 53.46
lfoot -25.5766 0.00940744
ltoes -5.31283
